<svg width="18" height="18" viewBox="0 0 18 18" fill="none" xmlns="http://www.w3.org/2000/svg">
<path fill-rule="evenodd" clip-rule="evenodd" d="M15.1322 6.76061C14.3365 3.06967 11.4318 0.633982 7.6632 0.473877C7.74472 0.477421 7.82892 0.4316 7.91435 0.367199C7.96921 0.327706 8.02365 0.281231 8.07796 0.234866C8.21222 0.120251 8.34569 0.00631164 8.48267 0.000192337C13.8808 0.229455 18.1847 6.16567 15.1294 11.2256C14.7661 11.8268 14.2994 12.4117 13.7577 12.9485C13.7974 12.929 13.8253 12.9214 13.8355 12.9318C14.2933 13.3896 14.7511 13.8473 15.2087 14.3048C16.1251 15.221 17.041 16.1367 17.9565 17.0528C17.9311 17.0273 17.7553 17.15 17.5726 17.2775C17.3748 17.4154 17.1691 17.559 17.1371 17.5265C16.6792 17.0686 16.2212 16.6108 15.7632 16.153C14.8854 15.2757 14.0076 14.3983 13.1306 13.5202C11.579 14.8213 9.58616 15.7139 7.6632 15.6318C2.26509 15.4025 -2.0388 9.4663 1.01646 4.4064C2.58429 1.81127 5.42303 0.144203 8.44396 0.0019315C8.32056 0.0178107 8.1935 0.12902 8.06726 0.239512C8.01606 0.284329 7.96499 0.329027 7.91435 0.367199C7.83189 0.426566 7.74849 0.470155 7.6632 0.473877C-1.81049 0.877455 -0.598804 15.5446 8.48267 15.1581C12.7212 14.9781 16.0626 11.0787 15.1322 6.76061ZM8.48267 0.000192337C8.46981 -0.000351037 8.4569 0.000265649 8.44396 0.0019315C8.45686 0.00132396 8.46976 0.000744222 8.48267 0.000192337Z" fill="white"/>
</svg>
